<svg xmlns="http://www.w3.org/2000/svg" viewBox="0 0 512 512" xmlns:v="https://vecta.io/nano"><path d="M422.374 89.625c-2.97-2.97-7.784-2.97-10.754-.001l-234.08 234.08c-2.97 2.97-2.97 7.785 0 10.753a7.58 7.58 0 0 0 10.754 0l234.08-234.08c2.97-2.97 2.97-7.784-.001-10.753zm87.793-19.695A82.85 82.85 0 0 0 442.07 1.832c-24.685-4.112-50.586-1.3-76.984 8.396-6.688 2.454-13.203 5.292-19.53 8.476a7.57 7.57 0 0 0-.806.414c-41.53 21.14-74.74 57.505-92.8 102.43l-1.48 3.783a237.91 237.91 0 0 1-1.58-16.355c-.148-2.43-1.316-4.74-3.34-6.092-3.15-2.104-7.207-1.585-9.72 1.003-13.968 14.38-26.368 28.747-37.433 43.008a7.5 7.5 0 0 0-.715.926c-57.393 74.323-78.475 145.634-94.574 200.113-11.77 39.828-21.067 71.288-39.624 89.845L2.23 499.02c-2.97 2.97-2.97 7.785 0 10.753a7.58 7.58 0 0 0 5.377 2.227 7.58 7.58 0 0 0 5.377-2.227l61.25-61.25c18.558-18.55 50.015-27.848 89.84-39.616 39.913-11.795 89.572-26.47 142.1-56.032 2.463-1.386 4.136-3.964 4.12-6.8-.02-3.608-2.53-6.637-5.957-7.397-10.4-2.307-19.252-4.904-26.6-7.438 7.286-1.077 15.718-2.714 25.23-5.17 55.3-14.287 104.626-45.38 142.615-89.922a646.81 646.81 0 0 0 12.902-15.622c3.63-4.54 7.12-9.118 10.378-13.614 2.453-3.386 1.988-8.226-1.33-10.768-3.415-2.616-8.3-1.884-10.793 1.58-3.17 4.387-6.578 8.863-10.13 13.303-7.74 9.67-17.55 17.5-28.713 22.87-54.925 26.42-101.04 33.527-101.55 33.602-4.153.616-7.02 4.48-6.406 8.634a7.61 7.61 0 0 0 8.634 6.41c1.892-.28 37.65-5.755 84.415-25.27-30.26 25.73-65.526 44.18-103.825 54.07-33.295 8.6-51.993 6.346-52.148 6.326-3.502-.477-6.866 1.516-8.13 4.814a7.59 7.59 0 0 0 2.832 9.013c.652.443 13.676 9.137 40.265 17.087-44.882 22.88-87.328 35.424-122.198 45.73-16.75 4.95-32.088 9.485-45.832 14.505l50.035-50.035c3.024-3.024 2.97-7.963-.168-10.916-3.03-2.854-7.868-2.555-10.812.4l-49.8 49.8c5.02-13.743 9.554-29.08 14.503-45.83 9.76-33.02 20.818-70.445 40.126-110.868a470.48 470.48 0 0 1 17.349-32.898c-8.457 27.568-12.777 50.315-12.834 67.73-.012 3.92 2.775 7.426 6.666 7.9a7.61 7.61 0 0 0 8.541-7.548c0-25.216 10.4-60.094 19.602-86 8.338-23.5 21.118-45.182 37.894-63.616l.262-.287c2.418 18.945 6.2 32.613 6.392 33.34.952 3.413 4.136 5.708 7.675 5.552 3.54-.164 6.497-2.75 7.13-6.235 1.825-10.038 5.043-20.827 9.565-32.068 10.442-25.96 26.343-48.814 46.15-67.064-13.456 22.5-20.563 45-20.615 65.6-.01 3.877 2.823 7.318 6.672 7.775a7.61 7.61 0 0 0 8.536-7.548c0-32.288 20.023-62.797 33.955-80.116 7.725-9.602 17.838-17.052 29.402-21.3l.176-.065c23.893-8.766 47.192-11.347 69.246-7.672 28.503 4.75 50.845 27.092 55.595 55.595 5.35 32.1-2.563 66.573-23.518 102.46a7.61 7.61 0 0 0 3.705 10.882c3.542 1.462 7.6-.08 9.53-3.4 22.723-38.975 31.23-76.808 25.3-112.453z"/></svg>