<svg xmlns="http://www.w3.org/2000/svg" viewBox="0 0 512 512" xmlns:v="https://vecta.io/nano"><path d="M407.072 374.202C433.415 340.547 448 298.85 448 256c0-88.83-61.91-166.438-147.85-186.71-20.32-40.9-34.78-63.78-35.19-64.414-2-3.083-5.563-4.344-9.104-4.875-3.667.052-7.052 2-8.97 5.125-13.103 21.526-25.092 43.073-36.168 64.484C125.435 90.292 64 167.77 64 256c0 42.18 14.216 83.4 39.897 116.83C87.924 449.652 85.4 499.764 85.344 500.875a10.66 10.66 0 0 0 6.979 10.469c1.198.448 2.448.656 3.677.656 3.22 0 6.354-1.47 8.417-4.115 21.306-27.393 44.047-55.01 66.13-80.385C197.07 440.72 226.337 448 256 448c39.573 0 78.374-12.555 110.635-35.345 13.883 22.865 27.652 47.777 39.823 72.116 2.344 4.667 7.73 6.938 12.75 5.406a10.67 10.67 0 0 0 7.344-11.74c-5.402-36.464-12.04-71.236-19.48-104.235zM85.333 256c0-72 46.03-135.906 112.2-160.15-44.13 91.18-71.042 178.465-87.384 248.5-16.214-26.55-24.826-56.653-24.826-88.36zM256 426.667c-24.457 0-48.598-5.624-70.803-15.78C231.766 358.846 273.065 320 288 320c13.568 0 39.87 31.813 67.3 74.54-29.093 20.973-63.186 32.128-99.3 32.128zm32-128c-37.5 0-131.656 110.52-178.083 167.98 8.78-74 40-253.896 146.083-435.177 25.458 44.344 98.813 184.27 138.354 385.635C363.5 363.5 319.656 298.667 288 298.667zm112.393 47.975c-26.326-106.723-60.345-192.547-87.833-251.5 67.242 23.68 114.107 88.013 114.107 160.868 0 32.178-9.306 63.6-26.274 90.642z"/></svg>
