<svg xmlns="http://www.w3.org/2000/svg" height="512" viewBox="0 0 512.065 512.065" width="512" xmlns:v="https://vecta.io/nano"><path d="M509.775 94.978L500.65 50.46l-44.516-9.124a112.16 112.16 0 0 0-22.481-2.283c-27.887 0-54.408 10.296-74.822 28.676-13.628-10.855-30.378-16.746-48.024-16.746-27.24 0-51.967 13.856-66.144 37.066l-8.8 14.42c-13.28-8.444-28.694-12.964-44.8-12.964-27.544 0-53.342 13.5-69.01 36.114a230.81 230.81 0 0 0-40.659 117.347 230.83 230.83 0 0 0 26.028 121.434l19.997 38.085-23.42 23.42c-22.822 22.822-59.957 22.822-82.78 0L0 447.122c17.26 17.26 39.93 25.89 62.603 25.89s45.343-8.63 62.603-25.89l23.42-23.42L186.71 443.7c32.966 17.31 70.068 26.46 107.296 26.46h.01c47.207 0 92.675-14.21 131.476-41.093 20.526-14.222 33.568-36.644 35.78-61.518 1.652-18.573-2.88-36.868-12.648-52.28l14.44-8.82c20.408-12.466 33.723-33.237 36.526-56.987 2.448-20.727-3.415-41.1-16.2-57.182a111.8 111.8 0 0 0 26.395-97.302zm-57.052 85.297l-12.59 10.542 16.035 15.97c10.378 10.337 15.345 24.61 13.627 39.155s-9.872 27.27-22.372 34.904l-45.212 27.617 13.53 13.475a53.73 53.73 0 0 1 15.647 42.952c-1.42 15.978-9.8 30.38-22.984 39.516-33.76 23.4-73.313 35.753-114.4 35.753-32.398-.001-64.678-7.962-93.36-23.022l-29.813-15.654 34.126-34.126h114.08v-30h-84.08l30.097-30.097h94.58v-30h-64.58l30.097-30.097h66.43v-30h-36.43l37.438-37.438-21.213-21.213-37.068 37.068v-35.7h-30v65.7l-30.417 30.417v-64.482h-30v94.482l-30.097 30.097v-83.98h-30v113.98L149.63 380.27l-15.654-29.813c-17.06-32.5-24.9-69.024-22.646-105.653a200.83 200.83 0 0 1 35.376-102.097c10.064-14.526 26.644-23.2 44.35-23.2 14.395 0 27.933 5.633 38.12 15.862l13.475 13.53 27.616-45.212c8.684-14.216 23.84-22.704 40.542-22.704 12.647 0 24.55 4.957 33.517 13.958l15.972 16.036 10.54-12.588c15.612-18.643 38.508-29.335 62.817-29.335 5.5 0 11.047.563 16.458 1.67l25.125 5.15 5.15 25.125a81.85 81.85 0 0 1-27.664 79.274z"/></svg>