<svg xmlns="http://www.w3.org/2000/svg" height="512" width="512" xmlns:v="https://vecta.io/nano"><path d="M497 0H304.2c-8.284 0-15 6.716-15 15v28.053L256.437 10.3a14.99 14.99 0 0 0-13.616-4.088c-45.635 9.346-89.22 29.534-126.043 58.38-5.612 4.397-7.354 12.14-4.165 18.517l29.514 59.026L83.1 112.613a15 15 0 0 0-18.519 4.17c-23.294 29.752-40.632 63.085-51.532 99.073a15 15 0 0 0 3.749 14.955l42.323 42.323H15.45c-7.95 0-14.52 6.202-14.976 14.138A297.08 297.08 0 0 0 0 304.2c0 43.708 35.56 79.267 79.267 79.267a48.95 48.95 0 0 1 22.562 5.492L4.394 486.393c-5.858 5.858-5.858 15.355 0 21.213s15.355 5.858 21.213 0l97.434-97.434c3.5 6.765 5.492 14.433 5.492 22.562 0 43.708 35.56 79.267 79.267 79.267 5.602 0 11.29-.16 16.903-.473 7.947-.444 14.163-7.018 14.163-14.977v-43.67l42.324 42.324a15 15 0 0 0 14.951 3.75c35.988-10.9 69.323-28.23 99.08-51.536a15 15 0 0 0 4.167-18.517l-29.514-59.026 59.027 29.513a15 15 0 0 0 18.517-4.167c28.844-36.824 49.03-80.408 58.38-126.04 1.012-4.938-.523-10.053-4.088-13.617L468.946 222.8H497c8.284 0 15-6.716 15-15V15c0-8.284-6.716-15-15-15zM123.677 367.1a78.81 78.81 0 0 0-44.411-13.643C52.1 353.467 30 331.366 30 304.2l.002-1.067h65.33a15 15 0 0 0 10.606-25.607l-61.46-61.46c8.587-25.354 20.795-49.166 36.41-71.02l88.07 44.035a15 15 0 0 0 17.314-2.81c4.565-4.565 5.697-11.54 2.8-17.315L145.05 80.894c28.828-20.558 61.66-35.474 95.982-43.58l52.56 52.56A15 15 0 0 0 319.2 79.268V30h141.587zM482 192.8h-49.267a15 15 0 0 0-10.606 25.607l52.56 52.56c-8.11 34.32-23.025 67.152-43.58 95.982l-88.064-44.032a15 15 0 0 0-17.314 2.81c-4.565 4.565-5.697 11.54-2.8 17.315l44.036 88.07c-21.854 15.62-45.665 27.83-71.018 36.41l-61.463-61.462c-4.3-4.29-10.742-5.572-16.347-3.252a15 15 0 0 0-9.26 13.858v65.332L207.8 482c-27.166 0-49.267-22.1-49.267-49.267 0-16.444-5.036-31.733-13.643-44.41L482 51.213z"/></svg>