<svg xmlns="http://www.w3.org/2000/svg" viewBox="0 0 512 512" xmlns:v="https://vecta.io/nano"><path d="M296.606 364.393l-30-30c-5.857-5.858-15.355-5.858-21.213 0l-30 30C205.985 373.8 212.646 390 226 390h60c13.304 0 20.05-16.164 10.606-25.607zM166 179.997c-41.355 0-75 33.645-75 75s33.645 75 75 75 75-33.645 75-75.002-33.646-75-75-75zm0 120.2c-24.813 0-45.2-20.387-45.2-45.2s20.387-45.2 45.2-45.2 45.2 20.387 45.2 45.2-20.387 45.2-45.2 45.2zm180-120.2c-41.355 0-75 33.645-75 75s33.645 75 75 75 75-33.645 75-75-33.646-75-75-75zm0 120.2c-24.813 0-45.2-20.387-45.2-45.2s20.387-45.2 45.2-45.2 45.2 20.387 45.2 45.2-20.388 45.2-45.2 45.2zm130.108-29.21c15.607-74.732-7.02-151.096-61.007-205.086V65.9C372.602 23.404 316.1 0 256 0S139.398 23.404 96.898 65.902c-53.87 53.87-76.716 130.182-61.007 205.1-6.143 17.917-6.485 37.065-.95 55.682 9.404 31.617 35.56 54.97 68.46 61.25 3.795 1.08 4.018.017 11.46 1.242 2.047.337 4 .62 6.14.763v58.023c0 18.193 10.705 34.432 27.272 41.37 24.7 10.343 63.434 22.67 107.706 22.675.008 0 .015.001.023.001s.016-.001.023-.001c44.27-.004 83.006-12.333 107.7-22.676 16.565-6.938 27.27-23.176 27.27-41.367V389.86c2.077-.14 4.014-.403 6.046-.714 7.93-1.213 8.245-.1 12.24-1.437 32.914-6.607 58.868-30.138 68.004-61.833 5.293-18.356 4.87-37.23-1.183-54.888zm-27.643 46.58c-6.117 21.222-23.856 36.907-46.3 40.962-12.258.374-10.552 2.83-23.167.267-9.3-1.887-17.985 5.224-17.985 14.7v74.458c0 6.066-3.477 11.442-8.856 13.696-5.484 2.296-12.864 4.862-21.343 7.605V436.8c0-8.284-6.516-14.8-14.8-14.8s-15 6.716-15 15v40.324c-9.4 1.9-19.67 3.176-30.2 3.93V436.8c0-8.284-6.516-14.8-14.8-14.8s-15 6.716-15 15v44.453c-10.53-.753-20.8-2.44-30.2-4.33V436.8c0-8.284-6.516-14.8-14.8-14.8s-15 6.716-15 15v32.457c-8.478-2.743-15.658-5.5-21.14-7.805-5.382-2.254-9.06-7.83-9.06-13.897l.002-74.45c0-9.462-8.482-16.4-17.784-14.5-13.377 2.716-10.435.035-23.66-.285-21.986-4.08-39.448-19.506-45.66-40.396-4.05-13.62-3.46-27.605 1.707-40.44a15 15 0 0 0 .705-8.954c-15.458-67.38 5.15-134.755 52.005-181.612C154.945 50.284 203.914 29.8 256 29.8s101.055 20.483 137.887 57.314c47.708 47.7 67.15 115.603 52.006 181.6a15 15 0 0 0 .705 8.954c5.095 12.66 5.74 26.453 1.867 39.9z"/></svg>