<svg xmlns="http://www.w3.org/2000/svg" height="512" width="512" xmlns:v="https://vecta.io/nano"><path d="M256 512c-68.38 0-132.667-26.63-181.02-74.98S0 324.38 0 256 26.63 123.333 74.98 74.98 187.62 0 256 0s132.667 26.63 181.02 74.98S512 187.62 512 256s-26.63 132.667-74.98 181.02S324.38 512 256 512zm0-482c-60.367 0-117.12 23.508-159.806 66.194S30 195.633 30 256s23.508 117.12 66.194 159.806S195.633 482 256 482s117.12-23.508 159.806-66.194S482 316.367 482 256s-23.508-117.12-66.194-159.806S316.367 30 256 30zm-15 30.036h30v40.032h-30zm114.603 75.124l28.303-28.303 21.2 21.2-28.303 28.303zM411.932 241h40.032v30h-40.032zm-56.356 135.868l21.2-21.2 28.303 28.303-21.2 21.2zM241 411.932h30v40.032h-30zm-134.225-27.998l28.303-28.303 21.2 21.2-28.303 28.303zM60.036 241h40.032v30H60.036zM106.8 128.04l21.2-21.2 28.303 28.303-21.2 21.2zM361.892 271H241V150.108h30V241h90.892z"/></svg>